<?xml version="1.0" encoding="UTF-8"?><svg id="Capa_1" xmlns="http://www.w3.org/2000/svg" viewBox="0 0 641.48 761.05"><defs><style>.cls-1{fill:#ad2141;}</style></defs><path class="cls-1" d="M0,342.72c3.41-10.2,3.41-20.97,5.38-31.44,14.09-74.52,46.12-140.41,99.43-194.15C163.4,58.08,233,17.67,316.73,5.06c112.82-17,214.42,8.56,303.74,80.39,6.22,5,12.37,10.06,18.47,15.2,2.82,2.39,3.86,4.35,.14,7.71-18.61,16.83-37.02,33.92-54.39,52.05-4.31,4.52-7.28,3.04-11.17-.41-43.08-38.16-93.24-61.98-149.99-70.19-75.42-10.96-144.95,5.01-208.59,47.89-59.4,40.15-98.75,94.61-118.07,163.4-44.64,160.33,52.5,325.39,214.42,364.92,5.9,1.41,11.92,2.44,17.88,3.69,4.23,.9,6.07-.76,6.01-5.16-.11-8.45,0-16.9,.11-25.36,.1-5.85-3.56-7.56-8.45-8.32-32.4-5.06-61.49-18.31-88.32-36.34-64.7-43.53-102.83-104.42-113.14-181.53-10.97-82.15,13.96-153.69,71.33-212.81,46.02-47.41,102.74-72.6,169.6-76.07,68.13-3.51,127.14,17.54,179.5,59.91,8.09,6.55,8.03,7.32,.85,14.64-10.35,10.55-21.13,20.78-30.99,31.72-4.51,4.97-7.25,4.04-11.76,.35-29.31-23.95-62.71-39.44-100.36-43.92-59.26-7.04-111.45,10.16-155.29,50.44-47.1,43.3-66.57,98.05-62.28,161.36,5.28,77.54,65.67,149.6,141,169.03,6.83,1.76,8.16,.7,8.16-6.68v-149.98c0-9.4-.85-10.28-10.59-10.23-25.1,.14-50.19,.39-75.29,.55-8.66,0-9.25-.63-9.33-9.07-.11-12.68,0-25.36-.42-38.03-.18-6.56,2.72-8.45,8.94-8.38,25.1,.45,50.19,.59,75.29,.76,10.56,.08,11.49-1.07,11.42-11.71-.15-22.99-.24-46-.28-69.02,0-8.45,1.24-9.47,9.97-9.41,13.61,.07,27.21,.27,40.85-.08,6.75-.18,9.13,2.28,9.03,9-.35,23.47-.31,46.94-.37,70.43,0,9.48,1.41,10.89,11.04,10.79,24.86-.24,49.72-.65,74.57-.89,9.24-.1,10.11,.87,10.13,9.86,0,12.44-.24,24.88,.1,37.31,.18,6.59-2.66,8.62-8.82,8.58-26.05-.2-52.12,0-78.15-.34-6.8-.08-9,2.24-8.99,8.9,.18,52.33,.08,104.67,.13,157.02,0,7.28,1.25,8.02,10.73,6.42,34.53-5.82,66.21-18.14,93.86-40.19,11.92-9.51,9.68-10,21.24,1.58l27.37,27.37c5.8,5.8,5.86,7.78-.37,12.97-36.76,30.72-78.33,50.98-126.11,57.63-7.2,1-14.31,2.49-21.47,3.72-3.58,.62-5.13,2.54-5.06,6.3,.17,8.9,.24,17.83,0,26.76-.11,4.09,1.58,4.55,5.06,4.23,64.67-7.21,123.48-28.36,172.75-72.32,7.04-6.31,7.82-6.3,14.28,.21,16.07,16.13,31.99,32.4,48.23,48.36,4.79,4.7,4.78,7.87-.23,12.52-38.93,36.23-84.18,61.08-134.57,77.78-96.5,32-191.35,27.03-282.46-16.41C101.98,668.85,32.41,575.95,5.63,450.71c-2.08-9.69-2.17-19.72-5.56-29.19l-.07-78.8Z"/></svg>