<?xml version="1.0" encoding="UTF-8"?><svg id="Capa_1" xmlns="http://www.w3.org/2000/svg" viewBox="0 0 23.72 23.72"><defs><style>.cls-1{fill:none;stroke:#fff;stroke-linecap:round;stroke-linejoin:round;stroke-width:2px;}</style></defs><path class="cls-1" d="M17.75,14.95v2.05c0,.75-.52,1.37-1.17,1.37-.04,0-.07,0-.11,0-1.81-.23-3.55-.94-5.08-2.09-1.42-1.05-2.63-2.44-3.53-4.09-.99-1.78-1.61-3.8-1.81-5.91-.06-.75,.42-1.41,1.07-1.48,.03,0,.07,0,.1,0h1.77c.59,0,1.09,.49,1.18,1.17,.07,.65,.21,1.3,.41,1.92,.16,.5,.06,1.06-.26,1.44l-.75,.87c.84,1.71,2.06,3.12,3.53,4.09l.75-.87c.33-.37,.81-.49,1.24-.31,.53,.23,1.09,.39,1.65,.48,.59,.1,1.03,.69,1.01,1.38Z"/><circle class="cls-1" cx="11.86" cy="11.86" r="10.86"/></svg>