<?xml version="1.0" encoding="UTF-8"?><svg id="Capa_1" xmlns="http://www.w3.org/2000/svg" viewBox="0 0 24 17.46"><defs><style>.cls-1{fill:none;stroke:#fff;stroke-linecap:round;stroke-linejoin:round;stroke-width:2px;}</style></defs><path class="cls-1" d="M22.54,3.42c-.24-.97-.98-1.73-1.94-2-1.72-.42-8.6-.42-8.6-.42,0,0-6.88,0-8.6,.46-.96,.27-1.7,1.03-1.94,2-.31,1.75-.47,3.52-.46,5.29-.01,1.79,.14,3.57,.46,5.33,.27,.94,1,1.66,1.94,1.92,1.72,.46,8.6,.46,8.6,.46,0,0,6.88,0,8.6-.46,.96-.27,1.7-1.03,1.94-2,.31-1.73,.47-3.49,.46-5.25,.01-1.79-.14-3.57-.46-5.33Z"/><polygon class="cls-1" points="9.75 12.02 15.5 8.75 9.75 5.48 9.75 12.02"/></svg>